PathFileType	4	(X/Y/Z)	/Users/itak/Documents/Research/Walk-IL/dataset/trc/00403_00012.trc
DataRate	CameraRate	NumFrames	NumMarkers	Units	OrigDataRate	OrigDataStartFrame	OrigNumFrames
100.000000	100.000000	4	53	mm	100.000000	70	566
Frame#	Time	RPSI			LPSI			L3			STRN			T10			C7			CLAV			RBAK			LBAK			LSHO			LUPA			LAEL			LAOL			LWTS			LWPS			LFRA			LHPS			LHTS			RSHO			RUPA			RAEL			RAOL			RWTS			RWPS			RFRA			RIFD			RHTS			RHPS			RBHD			LFHD			RFHD			LBHD			LHIP			RHIP			RASI			LASI			LKNE			LTHI			LANK			LTIP			LTOE			LMT1			LMT5			LHEE			RKNE			RTHI			RANK			RTIP			RTOE			RMT1			RMT5			RHEE			LIFD			
		X1	Y1	Z1	X2	Y2	Z2	X3	Y3	Z3	X4	Y4	Z4	X5	Y5	Z5	X6	Y6	Z6	X7	Y7	Z7	X8	Y8	Z8	X9	Y9	Z9	X10	Y10	Z10	X11	Y11	Z11	X12	Y12	Z12	X13	Y13	Z13	X14	Y14	Z14	X15	Y15	Z15	X16	Y16	Z16	X17	Y17	Z17	X18	Y18	Z18	X19	Y19	Z19	X20	Y20	Z20	X21	Y21	Z21	X22	Y22	Z22	X23	Y23	Z23	X24	Y24	Z24	X25	Y25	Z25	X26	Y26	Z26	X27	Y27	Z27	X28	Y28	Z28	X29	Y29	Z29	X30	Y30	Z30	X31	Y31	Z31	X32	Y32	Z32	X33	Y33	Z33	X34	Y34	Z34	X35	Y35	Z35	X36	Y36	Z36	X37	Y37	Z37	X38	Y38	Z38	X39	Y39	Z39	X40	Y40	Z40	X41	Y41	Z41	X42	Y42	Z42	X43	Y43	Z43	X44	Y44	Z44	X45	Y45	Z45	X46	Y46	Z46	X47	Y47	Z47	X48	Y48	Z48	X49	Y49	Z49	X50	Y50	Z50	X51	Y51	Z51	X52	Y52	Z52	X53	Y53	Z53	

71	0.7000000000000001	153.1569519042969	965.5607299804688	1111.693603515625	151.0200042724609	967.730224609375	1242.765502929688	142.7128601074219	1051.179565429688	1175.453125	-108.9404830932617	1183.7138671875	1152.81005859375	139.5728302001953	1152.28955078125	1188.592041015625	74.85871124267578	1396.61962890625	1190.064208984375	-68.22765350341797	1306.757690429688	1158.065185546875	142.3926391601562	1255.347900390625	1132.415405273438	70.80424499511719	1360.673828125	1294.717895507812	-24.47881698608398	1372.146606445312	1328.55224609375	-3.957892656326294	1260.241943359375	1406.3720703125	-1.138942241668701	1060.560546875	1427.892944335938	67.27016448974609	1047.835327148438	1378.23583984375	-91.50004577636719	853.94091796875	1364.44775390625	-49.63949584960938	834.737060546875	1432.834716796875	-17.4122314453125	956.482666015625	1432.76806640625	-63.69901275634766	751.045166015625	1420.868408203125	-113.5966796875	755.6718139648438	1377.742431640625	49.17480087280273	1372.310546875	1023.916809082031	77.0804443359375	1309.354858398438	968.1986694335938	88.01324462890625	1048.908569335938	912.7643432617188	89.85818481445312	1033.608032226562	1008.529479980469	-74.10453796386719	858.519287109375	897.4952392578125	-21.42744064331055	840.2610473632812	848.8706665039062	59.29072189331055	988.6112060546875	888.260009765625	-105.8366165161133	687.3353881835938	876.321533203125	-107.0025482177734	760.2815551757812	864.9713745117188	-42.29261779785156	754.8145751953125	840.8388061523438	73.50060272216797	1559.70458984375	1093.786010742188	-107.3032836914062	1594.31396484375	1170.982177734375	-55.64834976196289	1580.261840820312	1060.441284179688	20.36920356750488	1573.60302734375	1245.293090820312	62.09002685546875	953.5073852539062	1354.552734375	71.1683349609375	942.0958251953125	996.5767211914062	-60.52615356445312	947.863037109375	1052.139526367188	-53.97243499755859	942.3684692382812	1315.709838867188	92.29722595214844	461.2930908203125	1344.578002929688	74.80286407470703	603.8247680664062	1352.398193359375	256.6705932617188	41.45708084106445	1299.257080078125	179.0454559326172	240.6555328369141	1334.492553710938	39.16322708129883	46.01621627807617	1247.452270507812	117.4516067504883	43.57138442993164	1212.361328125	131.5569305419922	41.16087341308594	1319.019287109375	293.1667175292969	37.15671539306641	1242.68408203125	-150.2686004638672	494.293212890625	1021.178955078125	-64.00588989257812	742.0635375976562	997.8746948242188	-186.3197021484375	65.34090423583984	1058.55029296875	-184.1901397705078	371.3507385253906	1029.5302734375	-366.0015869140625	80.2686767578125	1091.39599609375	-301.0337219238281	73.37924194335938	1132.78515625	-267.6523132324219	61.81914901733398	1038.41943359375	-127.0715103149414	47.08955001831055	1124.50927734375	-95.52436828613281	673.6304321289062	1361.653442382812	
72	0.71	147.0491333007812	963.3176879882812	1111.072021484375	143.9245147705078	966.126220703125	1242.07080078125	136.1980285644531	1048.809936523438	1174.64501953125	-114.8315811157227	1181.6474609375	1149.783325195312	133.2247772216797	1150.087524414062	1187.514892578125	68.79640960693359	1394.50048828125	1188.457641601562	-74.15464019775391	1304.68359375	1155.3359375	136.6370239257812	1253.166748046875	1131.23388671875	63.904296875	1358.503051757812	1293.081665039062	-31.61441802978516	1370.025390625	1326.209716796875	-11.72604656219482	1258.19677734375	1404.262939453125	-9.280570983886719	1058.613159179688	1426.096313476562	59.5513801574707	1045.644165039062	1376.968505859375	-101.8105392456055	853.5958862304688	1361.66064453125	-60.86219787597656	833.7196655273438	1430.394165039062	-26.66633033752441	954.95166015625	1430.755737304688	-76.0255126953125	750.3291625976562	1418.264770507812	-125.5623397827148	755.7098388671875	1374.745239257812	44.29782104492188	1370.238525390625	1022.071533203125	72.67238616943359	1307.214965820312	966.6285400390625	84.19242858886719	1046.56298828125	912.0675659179688	85.10054779052734	1031.540405273438	1007.802307128906	-75.89955139160156	854.6778564453125	895.4266967773438	-22.50647163391113	836.8883056640625	847.4573974609375	56.16880798339844	986.0927734375	887.3763427734375	-105.5750579833984	683.1930541992188	874.2852783203125	-107.3398590087891	755.9973754882812	862.7590942382812	-42.31637573242188	751.2289428710938	839.4152221679688	67.84149169921875	1557.959350585938	1092.476318359375	-113.6973419189453	1591.990112304688	1168.09912109375	-61.05131149291992	1578.158813476562	1058.024169921875	13.33998870849609	1571.5869140625	1243.509155273438	54.06258392333984	952.0864868164062	1353.240966796875	65.96722412109375	939.3729858398438	995.4186401367188	-66.12423706054688	945.3377685546875	1049.944702148438	-61.55837249755859	940.6118774414062	1313.555786132812	88.51808166503906	460.4810180664062	1343.967041015625	69.50567626953125	602.8400268554688	1351.545288085938	256.5197448730469	41.60760879516602	1299.282348632812	177.2904357910156	240.6063079833984	1334.375854492188	39.00447082519531	45.80596542358398	1247.47607421875	117.3899612426758	43.52547836303711	1212.3115234375	131.4311828613281	41.05176544189453	1319.078247070312	293.1322631835938	37.55724334716797	1242.735107421875	-154.0522155761719	491.1259765625	1018.41845703125	-68.32630157470703	739.4630126953125	995.9688110351562	-205.3232727050781	63.55918502807617	1056.041137695312	-191.6503448486328	369.5679016113281	1026.58203125	-384.8574523925781	84.47288513183594	1085.970581054688	-320.8560791015625	75.82884216308594	1128.439819335938	-286.3816223144531	62.60562515258789	1034.615478515625	-147.6991882324219	43.78413772583008	1122.993896484375	-107.7677536010742	673.15380859375	1358.650268554688	
73	0.72	140.7156982421875	961.03955078125	1110.317260742188	136.6016235351562	964.486572265625	1241.241943359375	129.5030670166016	1046.304565429688	1173.750732421875	-120.8887176513672	1179.541137695312	1146.639404296875	126.741828918457	1147.811645507812	1186.280395507812	62.63558578491211	1392.2939453125	1186.715942382812	-80.21552276611328	1302.561889648438	1152.485473632812	130.7286224365234	1250.880859375	1129.931030273438	56.9112548828125	1356.246459960938	1291.298095703125	-38.83908081054688	1367.85009765625	1323.733032226562	-19.59405136108398	1256.072021484375	1401.991943359375	-17.66880989074707	1056.588989257812	1424.156372070312	51.54938507080078	1043.325073242188	1375.5302734375	-112.4832763671875	853.271240234375	1358.750122070312	-72.44960021972656	832.7197265625	1427.801025390625	-36.21587371826172	953.3914794921875	1428.580200195312	-88.76429748535156	749.6454467773438	1415.486450195312	-137.9720458984375	755.8460083007812	1371.640747070312	39.31602478027344	1368.08544921875	1020.103942871094	68.15072631835938	1304.981323242188	964.9496459960938	80.21109008789062	1044.127197265625	911.3043823242188	80.22642517089844	1029.414672851562	1006.989685058594	-77.68990325927734	850.6358032226562	893.37158203125	-23.56020736694336	833.3517456054688	846.075439453125	52.92192840576172	983.4567260742188	886.4517822265625	-105.1084518432617	678.817138671875	872.4016723632812	-107.5732574462891	751.460205078125	860.6300659179688	-42.21925735473633	747.460693359375	838.0953979492188	62.11653518676758	1556.189453125	1091.08837890625	-120.1533813476562	1589.597534179688	1165.144409179688	-66.52051544189453	1576.021850585938	1055.535766601562	6.245341300964355	1569.495849609375	1241.646118164062	45.84203720092773	950.5966796875	1351.797485351562	60.55492782592773	936.5991821289062	994.1360473632812	-71.88976287841797	942.7501220703125	1047.65576171875	-69.35492706298828	938.774169921875	1311.294311523438	84.49428558349609	459.6273193359375	1343.208374023438	64.00817108154297	601.7918701171875	1350.537841796875	256.3536376953125	41.79287338256836	1299.326171875	175.4221496582031	240.5828399658203	1334.192016601562	38.87253952026367	45.61447525024414	1247.482788085938	117.3529357910156	43.48772811889648	1212.260131835938	131.3059234619141	40.94716262817383	1319.1357421875	293.098876953125	38.03763580322266	1242.810913085938	-157.9204406738281	487.92431640625	1015.776916503906	-72.81838989257812	736.7596435546875	993.9951171875	-223.452392578125	62.09968185424805	1053.390258789062	-198.9297485351562	367.7855834960938	1023.647094726562	-402.7445068359375	88.72733306884766	1080.022094726562	-339.8466796875	78.44994354248047	1123.695556640625	-304.10400390625	63.59494018554688	1030.515991210938	-167.5957946777344	40.92400741577148	1121.405883789062	-120.6031188964844	672.71923828125	1355.556274414062	
74	0.73	134.1657104492188	958.7476196289062	1109.4267578125	129.0607604980469	962.8137817382812	1240.276977539062	122.6354141235352	1043.693237304688	1172.77294921875	-127.1239776611328	1177.413452148438	1143.3828125	120.1286926269531	1145.48828125	1184.894287109375	56.36164474487305	1390.025756835938	1184.829345703125	-86.42044830322266	1300.409912109375	1149.511108398438	124.6578750610352	1248.515014648438	1128.506225585938	49.81127548217773	1353.933715820312	1289.357788085938	-46.16330337524414	1365.650024414062	1321.113159179688	-27.56752014160156	1253.896850585938	1399.553100585938	-26.30327796936035	1054.515014648438	1422.05859375	43.2619514465332	1040.910522460938	1373.907836914062	-123.5043716430664	852.9951782226562	1355.707885742188	-84.37779235839844	831.7633666992188	1425.043823242188	-46.05074310302734	951.8267211914062	1426.230712890625	-101.902099609375	749.0166015625	1412.50537109375	-150.7797088623047	756.0969848632812	1368.399291992188	34.21665573120117	1365.863525390625	1018.007629394531	63.50516128540039	1302.665893554688	963.15625	76.07501983642578	1041.617309570312	910.4616088867188	75.24266052246094	1027.244018554688	1006.080627441406	-79.48246765136719	846.4228515625	891.3228149414062	-24.60033798217773	829.6823120117188	844.717041015625	49.55482482910156	980.7208251953125	885.47314453125	-104.4580764770508	674.2501220703125	870.6671752929688	-107.7187271118164	746.7135009765625	858.58154296875	-42.01880264282227	743.5459594726562	836.8712158203125	56.3255615234375	1554.40966796875	1089.616943359375	-126.6686248779297	1587.166625976562	1162.115112304688	-72.05847930908203	1573.878173828125	1052.973754882812	-0.9090592265129089	1567.34375	1239.703369140625	37.44888687133789	949.0393676757812	1350.21875	54.94093322753906	933.8154296875	992.723388671875	-77.83847045898438	940.1387329101562	1045.252197265625	-77.35856628417969	936.863037109375	1308.916748046875	80.21913146972656	458.7359924316406	1342.28662109375	58.29888916015625	600.6851196289062	1349.358520507812	256.1741638183594	42.02806854248047	1299.391967773438	173.4383697509766	240.5950622558594	1333.934814453125	38.76489639282227	45.43023300170898	1247.4716796875	117.3387069702148	43.45901489257812	1212.213012695312	131.1883544921875	40.847900390625	1319.192260742188	293.0684509277344	38.6259765625	1242.915405273438	-161.9414215087891	484.74365234375	1013.253967285156	-77.50496673583984	733.9898071289062	991.9384155273438	-240.5322875976562	60.90462493896484	1050.673461914062	-206.0512542724609	366.0043334960938	1020.745971679688	-419.5133666992188	92.83518218994141	1073.623657226562	-357.8479919433594	81.08617401123047	1118.616577148438	-320.6449584960938	64.66776275634766	1026.2021484375	-186.5643615722656	38.49426651000977	1119.81494140625	-134.0217132568359	672.3784790039062	1352.369262695312	
